<mxfile host="app.diagrams.net" modified="2024-01-10T10:20:48.202Z" agent="Mozilla/5.0 (Windows NT 10.0; Win64; x64) AppleWebKit/537.36 (KHTML, like Gecko) Chrome/120.0.0.0 Safari/537.36 Edg/120.0.0.0" etag="rxkw0zxTgsru1hDqNTgz" version="22.1.18" type="device">
  <diagram id="C5RBs43oDa-KdzZeNtuy" name="Page-1">
    <mxGraphModel dx="1040" dy="620" grid="1" gridSize="10" guides="1" tooltips="1" connect="1" arrows="1" fold="1" page="1" pageScale="1" pageWidth="827" pageHeight="1169" math="0" shadow="0">
      <root>
        <mxCell id="WIyWlLk6GJQsqaUBKTNV-0" />
        <mxCell id="WIyWlLk6GJQsqaUBKTNV-1" parent="WIyWlLk6GJQsqaUBKTNV-0" />
        <mxCell id="zkfFHV4jXpPFQw0GAbJ--0" value="Map" style="swimlane;fontStyle=2;align=center;verticalAlign=top;childLayout=stackLayout;horizontal=1;startSize=26;horizontalStack=0;resizeParent=1;resizeLast=0;collapsible=1;marginBottom=0;rounded=0;shadow=0;strokeWidth=1;" parent="WIyWlLk6GJQsqaUBKTNV-1" vertex="1">
          <mxGeometry screenWidth="160" screenHeight="336" as="geometry">
            <mxRectangle x="230" y="140" screenWidth="160" screenHeight="26" as="alternateBounds" />
          </mxGeometry>
        </mxCell>
        <mxCell id="zkfFHV4jXpPFQw0GAbJ--1" value="- lsg :     Array" style="text;align=left;verticalAlign=top;spacingLeft=4;spacingRight=4;overflow=hidden;rotatable=0;points=[[0,0.5],[1,0.5]];portConstraint=eastwest;" parent="zkfFHV4jXpPFQw0GAbJ--0" vertex="1">
          <mxGeometry y="26" screenWidth="160" screenHeight="26" as="geometry" />
        </mxCell>
        <mxCell id="zkfFHV4jXpPFQw0GAbJ--2" value="+ status :     Array" style="text;align=left;verticalAlign=top;spacingLeft=4;spacingRight=4;overflow=hidden;rotatable=0;points=[[0,0.5],[1,0.5]];portConstraint=eastwest;rounded=0;shadow=0;html=0;" parent="zkfFHV4jXpPFQw0GAbJ--0" vertex="1">
          <mxGeometry y="52" screenWidth="160" screenHeight="26" as="geometry" />
        </mxCell>
        <mxCell id="zkfFHV4jXpPFQw0GAbJ--3" value="bomb_cnt :    int" style="text;align=left;verticalAlign=top;spacingLeft=4;spacingRight=4;overflow=hidden;rotatable=0;points=[[0,0.5],[1,0.5]];portConstraint=eastwest;rounded=0;shadow=0;html=0;" parent="zkfFHV4jXpPFQw0GAbJ--0" vertex="1">
          <mxGeometry y="78" screenWidth="160" screenHeight="26" as="geometry" />
        </mxCell>
        <mxCell id="63fUtdVJqhkPeu00XbtW-2" value="flagged_bombs :&amp;nbsp; int" style="text;html=1;align=left;verticalAlign=middle;resizable=0;points=[];autosize=1;strokeColor=none;fillColor=none;" vertex="1" parent="zkfFHV4jXpPFQw0GAbJ--0">
          <mxGeometry y="104" screenWidth="160" screenHeight="30" as="geometry" />
        </mxCell>
        <mxCell id="zkfFHV4jXpPFQw0GAbJ--4" value="" style="line;html=1;strokeWidth=1;align=left;verticalAlign=middle;spacingTop=-1;spacingLeft=3;spacingRight=3;rotatable=0;labelPosition=right;points=[];portConstraint=eastwest;" parent="zkfFHV4jXpPFQw0GAbJ--0" vertex="1">
          <mxGeometry y="134" screenWidth="160" screenHeight="86" as="geometry" />
        </mxCell>
        <mxCell id="63fUtdVJqhkPeu00XbtW-6" value="+ update : void" style="text;html=1;align=left;verticalAlign=middle;resizable=0;points=[];autosize=1;strokeColor=none;fillColor=none;" vertex="1" parent="zkfFHV4jXpPFQw0GAbJ--0">
          <mxGeometry y="220" screenWidth="160" screenHeight="30" as="geometry" />
        </mxCell>
        <mxCell id="63fUtdVJqhkPeu00XbtW-5" value="- generate : Array" style="text;html=1;align=left;verticalAlign=middle;resizable=0;points=[];autosize=1;strokeColor=none;fillColor=none;" vertex="1" parent="zkfFHV4jXpPFQw0GAbJ--0">
          <mxGeometry y="250" screenWidth="160" screenHeight="30" as="geometry" />
        </mxCell>
        <mxCell id="63fUtdVJqhkPeu00XbtW-4" value="+ flag_bomb : void" style="text;html=1;align=left;verticalAlign=middle;resizable=0;points=[];autosize=1;strokeColor=none;fillColor=none;" vertex="1" parent="zkfFHV4jXpPFQw0GAbJ--0">
          <mxGeometry y="280" screenWidth="160" screenHeight="30" as="geometry" />
        </mxCell>
        <mxCell id="zkfFHV4jXpPFQw0GAbJ--5" value="+ check_field : void" style="text;align=left;verticalAlign=top;spacingLeft=4;spacingRight=4;overflow=hidden;rotatable=0;points=[[0,0.5],[1,0.5]];portConstraint=eastwest;" parent="zkfFHV4jXpPFQw0GAbJ--0" vertex="1">
          <mxGeometry y="310" screenWidth="160" screenHeight="26" as="geometry" />
        </mxCell>
        <mxCell id="63fUtdVJqhkPeu00XbtW-8" value="Game" style="swimlane;whiteSpace=wrap;html=1;" vertex="1" parent="WIyWlLk6GJQsqaUBKTNV-1">
          <mxGeometry x="180" screenWidth="260" screenHeight="210" as="geometry" />
        </mxCell>
        <mxCell id="63fUtdVJqhkPeu00XbtW-9" value="Treiber (Display, Input, evtl mehr)" style="text;html=1;align=left;verticalAlign=middle;resizable=0;points=[];autosize=1;strokeColor=none;fillColor=none;" vertex="1" parent="63fUtdVJqhkPeu00XbtW-8">
          <mxGeometry x="5" y="26" screenWidth="200" screenHeight="30" as="geometry" />
        </mxCell>
        <mxCell id="63fUtdVJqhkPeu00XbtW-10" value="GameState (Menue, Game, Result) : Enum" style="text;html=1;align=left;verticalAlign=middle;resizable=0;points=[];autosize=1;strokeColor=none;fillColor=none;" vertex="1" parent="63fUtdVJqhkPeu00XbtW-8">
          <mxGeometry x="5" y="50" screenWidth="250" screenHeight="30" as="geometry" />
        </mxCell>
        <mxCell id="63fUtdVJqhkPeu00XbtW-11" value="menue : Enum" style="text;html=1;align=left;verticalAlign=middle;resizable=0;points=[];autosize=1;strokeColor=none;fillColor=none;" vertex="1" parent="63fUtdVJqhkPeu00XbtW-8">
          <mxGeometry x="5" y="80" screenWidth="100" screenHeight="30" as="geometry" />
        </mxCell>
        <mxCell id="63fUtdVJqhkPeu00XbtW-12" value="" style="line;html=1;strokeWidth=1;align=left;verticalAlign=middle;spacingTop=-1;spacingLeft=3;spacingRight=3;rotatable=0;labelPosition=right;points=[];portConstraint=eastwest;" vertex="1" parent="63fUtdVJqhkPeu00XbtW-8">
          <mxGeometry y="90" screenWidth="260" screenHeight="86" as="geometry" />
        </mxCell>
        <mxCell id="63fUtdVJqhkPeu00XbtW-13" value="+ select() : void" style="text;html=1;align=left;verticalAlign=middle;resizable=0;points=[];autosize=1;strokeColor=none;fillColor=none;" vertex="1" parent="63fUtdVJqhkPeu00XbtW-8">
          <mxGeometry x="5" y="138" screenWidth="110" screenHeight="30" as="geometry" />
        </mxCell>
        <mxCell id="63fUtdVJqhkPeu00XbtW-14" value="+ exit()" style="text;html=1;align=left;verticalAlign=middle;resizable=0;points=[];autosize=1;strokeColor=none;fillColor=none;" vertex="1" parent="63fUtdVJqhkPeu00XbtW-8">
          <mxGeometry x="5" y="160" screenWidth="60" screenHeight="30" as="geometry" />
        </mxCell>
        <mxCell id="63fUtdVJqhkPeu00XbtW-35" value="+ clickHandler()" style="text;html=1;align=left;verticalAlign=middle;resizable=0;points=[];autosize=1;strokeColor=none;fillColor=none;" vertex="1" parent="63fUtdVJqhkPeu00XbtW-8">
          <mxGeometry x="5" y="180" screenWidth="110" screenHeight="30" as="geometry" />
        </mxCell>
        <mxCell id="63fUtdVJqhkPeu00XbtW-20" value="GUI" style="swimlane;fontStyle=0;childLayout=stackLayout;horizontal=1;startSize=30;horizontalStack=0;resizeParent=1;resizeParentMax=0;resizeLast=0;collapsible=1;marginBottom=0;whiteSpace=wrap;html=1;" vertex="1" parent="WIyWlLk6GJQsqaUBKTNV-1">
          <mxGeometry x="480" screenWidth="150" screenHeight="206" as="geometry" />
        </mxCell>
        <mxCell id="63fUtdVJqhkPeu00XbtW-21" value="Item 1" style="text;strokeColor=none;fillColor=none;align=left;verticalAlign=middle;spacingLeft=4;spacingRight=4;overflow=hidden;points=[[0,0.5],[1,0.5]];portConstraint=eastwest;rotatable=0;whiteSpace=wrap;html=1;" vertex="1" parent="63fUtdVJqhkPeu00XbtW-20">
          <mxGeometry y="30" screenWidth="150" screenHeight="30" as="geometry" />
        </mxCell>
        <mxCell id="63fUtdVJqhkPeu00XbtW-22" value="Item 2" style="text;strokeColor=none;fillColor=none;align=left;verticalAlign=middle;spacingLeft=4;spacingRight=4;overflow=hidden;points=[[0,0.5],[1,0.5]];portConstraint=eastwest;rotatable=0;whiteSpace=wrap;html=1;" vertex="1" parent="63fUtdVJqhkPeu00XbtW-20">
          <mxGeometry y="60" screenWidth="150" screenHeight="30" as="geometry" />
        </mxCell>
        <mxCell id="63fUtdVJqhkPeu00XbtW-26" value="" style="line;html=1;strokeWidth=1;align=left;verticalAlign=middle;spacingTop=-1;spacingLeft=3;spacingRight=3;rotatable=0;labelPosition=right;points=[];portConstraint=eastwest;" vertex="1" parent="63fUtdVJqhkPeu00XbtW-20">
          <mxGeometry y="90" screenWidth="150" screenHeight="86" as="geometry" />
        </mxCell>
        <mxCell id="63fUtdVJqhkPeu00XbtW-27" value="&amp;nbsp;+ update()" style="text;html=1;align=left;verticalAlign=middle;resizable=0;points=[];autosize=1;strokeColor=none;fillColor=none;" vertex="1" parent="63fUtdVJqhkPeu00XbtW-20">
          <mxGeometry y="176" screenWidth="150" screenHeight="30" as="geometry" />
        </mxCell>
        <mxCell id="63fUtdVJqhkPeu00XbtW-28" value="Field" style="swimlane;fontStyle=0;childLayout=stackLayout;horizontal=1;startSize=30;horizontalStack=0;resizeParent=1;resizeParentMax=0;resizeLast=0;collapsible=1;marginBottom=0;whiteSpace=wrap;html=1;" vertex="1" parent="WIyWlLk6GJQsqaUBKTNV-1">
          <mxGeometry x="660" screenWidth="140" screenHeight="236" as="geometry" />
        </mxCell>
        <mxCell id="63fUtdVJqhkPeu00XbtW-29" value="+ Status : Enum ( closed, opened, bomb, flag, ? )" style="text;strokeColor=none;fillColor=none;align=left;verticalAlign=middle;spacingLeft=4;spacingRight=4;overflow=hidden;points=[[0,0.5],[1,0.5]];portConstraint=eastwest;rotatable=0;whiteSpace=wrap;html=1;" vertex="1" parent="63fUtdVJqhkPeu00XbtW-28">
          <mxGeometry y="30" screenWidth="140" screenHeight="60" as="geometry" />
        </mxCell>
        <mxCell id="63fUtdVJqhkPeu00XbtW-30" value="Item 2" style="text;strokeColor=none;fillColor=none;align=left;verticalAlign=middle;spacingLeft=4;spacingRight=4;overflow=hidden;points=[[0,0.5],[1,0.5]];portConstraint=eastwest;rotatable=0;whiteSpace=wrap;html=1;" vertex="1" parent="63fUtdVJqhkPeu00XbtW-28">
          <mxGeometry y="90" screenWidth="140" screenHeight="30" as="geometry" />
        </mxCell>
        <mxCell id="63fUtdVJqhkPeu00XbtW-32" value="" style="line;html=1;strokeWidth=1;align=left;verticalAlign=middle;spacingTop=-1;spacingLeft=3;spacingRight=3;rotatable=0;labelPosition=right;points=[];portConstraint=eastwest;" vertex="1" parent="63fUtdVJqhkPeu00XbtW-28">
          <mxGeometry y="120" screenWidth="140" screenHeight="86" as="geometry" />
        </mxCell>
        <mxCell id="63fUtdVJqhkPeu00XbtW-31" value="&amp;nbsp;+ cntNeighbours(): int" style="text;strokeColor=none;fillColor=none;align=left;verticalAlign=middle;spacingLeft=4;spacingRight=4;overflow=hidden;points=[[0,0.5],[1,0.5]];portConstraint=eastwest;rotatable=0;whiteSpace=wrap;html=1;" vertex="1" parent="63fUtdVJqhkPeu00XbtW-28">
          <mxGeometry y="206" screenWidth="140" screenHeight="30" as="geometry" />
        </mxCell>
      </root>
    </mxGraphModel>
  </diagram>
</mxfile>
